<svg width="220" height="220" viewBox="0 0 220 220" fill="none" xmlns="http://www.w3.org/2000/svg">
  <rect width="220" height="220" rx="44" fill="url(#bg)"/>
  <ellipse cx="110" cy="182" rx="51" ry="15" fill="#2A1844" fill-opacity=".14"/>
  <path d="M70 80C70 52 88 36 110 36C132 36 150 52 150 80V133C150 159 132 176 110 176C88 176 70 159 70 133V80Z" fill="url(#body)"/>
  <path d="M82 67L64 82L74 58L54 44L80 48L90 22L96 50L120 59L97 63L82 67Z" fill="#FFD56C"/>
  <path d="M83 139H137L126 160H94L83 139Z" fill="#7D65FF" fill-opacity=".72"/>
  <circle cx="94" cy="108" r="8" fill="#281C44"/>
  <circle cx="126" cy="108" r="8" fill="#281C44"/>
  <circle cx="110" cy="142" r="16" fill="#FFF7C5"/>
  <defs>
    <linearGradient id="bg" x1="18" y1="14" x2="197" y2="205" gradientUnits="userSpaceOnUse">
      <stop stop-color="#FFEBD9"/>
      <stop offset="1" stop-color="#EEE4FF"/>
    </linearGradient>
    <linearGradient id="body" x1="110" y1="36" x2="110" y2="176" gradientUnits="userSpaceOnUse">
      <stop stop-color="#FFE1F8"/>
      <stop offset=".54" stop-color="#C3A1FF"/>
      <stop offset="1" stop-color="#7D65FF"/>
    </linearGradient>
  </defs>
</svg>
