<svg width="220" height="220" viewBox="0 0 220 220" fill="none" xmlns="http://www.w3.org/2000/svg">
  <rect width="220" height="220" rx="44" fill="url(#bg)"/>
  <ellipse cx="110" cy="177" rx="48" ry="14" fill="#1D2B44" fill-opacity=".18"/>
  <path d="M79 48C67 52 59 66 62 79L71 109L101 96L94 63C91 51 84 46 79 48Z" fill="#F2B245"/>
  <path d="M141 48C153 52 161 66 158 79L149 109L119 96L126 63C129 51 136 46 141 48Z" fill="#F2B245"/>
  <rect x="67" y="60" width="86" height="112" rx="42" fill="url(#body)"/>
  <circle cx="91" cy="111" r="9" fill="#18263D"/>
  <circle cx="129" cy="111" r="9" fill="#18263D"/>
  <circle cx="110" cy="142" r="18" fill="url(#core)"/>
  <defs>
    <linearGradient id="bg" x1="24" y1="18" x2="188" y2="208" gradientUnits="userSpaceOnUse">
      <stop stop-color="#FFF0D7"/>
      <stop offset="1" stop-color="#FFD8C5"/>
    </linearGradient>
    <linearGradient id="body" x1="110" y1="60" x2="110" y2="172" gradientUnits="userSpaceOnUse">
      <stop stop-color="#FFD880"/>
      <stop offset="1" stop-color="#FF8456"/>
    </linearGradient>
    <radialGradient id="core" cx="0" cy="0" r="1" gradientUnits="userSpaceOnUse" gradientTransform="translate(110 142) rotate(90) scale(18)">
      <stop stop-color="#FFFDEA"/>
      <stop offset="1" stop-color="#FFB347"/>
    </radialGradient>
  </defs>
</svg>
